# 3ds Max Wavefront OBJ Exporter v0.97b - (c)2007 guruware
# File Created: 30.01.2018 11:09:37

#
# object propeller
#

v  -9.8959 81.8645 -18.7659
v  -17.4134 81.6593 -33.0227
v  -15.0420 81.6593 -34.2730
v  -7.5246 81.8645 -20.0162
v  -22.2034 86.9596 -42.1070
v  -19.8321 86.9596 -43.3574
v  -21.0193 95.1248 -39.8615
v  -18.6480 95.1248 -41.1118
v  -15.6720 93.6678 -29.7202
v  -13.3007 93.6678 -30.9705
v  -9.5340 84.3603 -18.0795
v  -7.1627 84.3603 -19.3298
v  -8.5570 85.9233 -16.2266
v  -6.1857 85.9233 -17.4769
v  -10.9710 101.1884 -20.8048
v  -8.5997 101.1884 -22.0551
v  -10.1000 112.5935 -19.1530
v  -7.7287 112.5935 -20.4034
v  -6.1122 112.7023 -11.5900
v  -3.7408 112.7023 -12.8403
v  -5.1060 101.3485 -9.6819
v  -2.7347 101.3485 -10.9322
v  -7.3380 85.9566 -13.9149
v  -4.9667 85.9566 -15.1652
v  -6.3428 84.4474 -12.0273
v  -3.9715 84.4474 -13.2777
v  -0.3173 94.0869 -0.6000
v  2.0540 94.0869 -1.8504
v  5.0110 95.8353 9.5052
v  7.3823 95.8353 8.2548
v  6.2916 87.7374 11.9339
v  8.6629 87.7374 10.6835
v  1.5661 82.1773 2.9718
v  3.9374 82.1773 1.7215
v  -5.9514 81.9722 -11.2850
v  -3.5800 81.9722 -12.5354
v  -6.3133 79.4764 -11.9714
v  -3.9420 79.4764 -13.2217
v  -0.1753 70.1689 -0.3307
v  2.1960 70.1689 -1.5810
v  2.2468 59.8444 4.2629
v  4.6181 59.8444 3.0125
v  -0.9496 54.7307 -1.7992
v  1.4217 54.7307 -3.0495
v  -4.8763 62.6483 -9.2461
v  -2.5049 62.6483 -10.4964
v  -7.2903 77.9134 -13.8243
v  -4.9190 77.9134 -15.0746
v  -8.5092 77.8801 -16.1360
v  -6.1379 77.8801 -17.3864
v  -10.7412 62.4882 -20.3690
v  -8.3699 62.4882 -21.6193
v  -14.5726 54.3589 -27.6352
v  -12.2013 54.3589 -28.8856
v  -17.8287 59.2964 -33.8104
v  -15.4574 59.2964 -35.0608
v  -15.5300 69.7498 -29.4508
v  -13.1587 69.7498 -30.7012
v  -9.5045 79.3893 -18.0235
v  -7.1332 79.3893 -19.2739
v  -9.5291 83.5322 -18.0702
v  -8.1881 85.6774 -15.5270
v  -15.7888 93.0242 -29.9416
v  -20.7987 94.3893 -39.4431
v  -21.8272 87.2973 -41.3935
v  -17.3393 82.3314 -32.8823
v  -9.6729 82.5406 -18.3428
v  -6.6791 79.2105 -12.6651
v  -0.4194 69.7184 -0.7937
v  -7.0672 78.5895 -13.4013
v  -4.6053 63.0218 -8.7323
v  -6.1824 82.6359 -11.7231
v  1.4841 82.8452 2.8164
v  -0.1929 93.4499 -0.3641
v  -6.3379 83.6193 -12.0180
v  -7.0641 81.2254 -13.3952
v  -9.1356 79.1434 -17.3240
v  -8.7402 78.5438 -16.5741
v  -7.9115 79.8697 -15.0024
v  -8.8286 81.2605 -16.7418
v  -15.2806 69.3128 -28.9779
v  -11.0165 62.8468 -20.8910
v  -17.4343 59.5189 -33.0624
v  -14.6061 55.2304 -27.6988
v  -7.7039 85.6906 -14.6086
v  -5.4276 101.3877 -10.2917
v  -10.6500 101.2452 -20.1960
v  -7.5153 83.5871 -14.2510
v  -8.4951 83.5604 -16.1093
v  -6.3702 112.0252 -12.0794
v  -9.8340 111.9307 -18.6484
v  1.8499 60.0453 3.5101
v  -0.9264 55.6037 -1.7552
v  5.9115 88.0544 11.2130
v  4.7992 95.0880 9.1035
# 95 vertices

vn 0.0059 -0.9999 0.0113
vn -0.2139 -0.8886 -0.4057
vn -0.4454 0.2969 -0.8447
vn 0.0588 0.9920 0.1115
vn 0.2693 0.8164 0.5108
vn -0.2789 0.8015 -0.5290
vn -0.4417 -0.3211 -0.8377
vn -0.4603 0.1616 -0.8729
vn -0.0059 0.9999 -0.0113
vn 0.4582 0.1866 0.8690
vn 0.4454 -0.2969 0.8447
vn -0.0706 0.9885 -0.1338
vn 0.4417 0.3211 0.8377
vn 0.2244 -0.8767 0.4256
vn 0.4167 0.4493 0.7902
vn 0.2789 -0.8015 0.5290
vn -0.3195 -0.7285 -0.6060
vn 0.3281 -0.7108 0.6222
vn -0.2693 -0.8164 -0.5108
vn -0.4219 0.4265 -0.8001
vn 0.8846 -0.0000 -0.4664
vn -0.8846 0.0000 0.4664
# 22 vertex normals

vt 0.0000 0.0000 0.0000
vt 0.0485 0.0000 0.0000
vt 0.0485 1.0000 0.0000
vt 0.0000 1.0000 0.0000
vt 0.0832 0.0000 0.0000
vt 0.0832 1.0000 0.0000
vt 0.1089 0.0000 0.0000
vt 0.1089 1.0000 0.0000
vt 0.1437 0.0000 0.0000
vt 0.1437 1.0000 0.0000
vt 0.1921 0.0000 0.0000
vt 0.1921 1.0000 0.0000
vt 0.2000 0.0000 0.0000
vt 0.2000 1.0000 0.0000
vt 0.2485 0.0000 0.0000
vt 0.2485 1.0000 0.0000
vt 0.2832 0.0000 0.0000
vt 0.2832 1.0000 0.0000
vt 0.3089 0.0000 0.0000
vt 0.3089 1.0000 0.0000
vt 0.3437 0.0000 0.0000
vt 0.3437 1.0000 0.0000
vt 0.3921 0.0000 0.0000
vt 0.3921 1.0000 0.0000
vt 0.4000 0.0000 0.0000
vt 0.4000 1.0000 0.0000
vt 0.4485 0.0000 0.0000
vt 0.4485 1.0000 0.0000
vt 0.4832 0.0000 0.0000
vt 0.4832 1.0000 0.0000
vt 0.5089 0.0000 0.0000
vt 0.5089 1.0000 0.0000
vt 0.5437 0.0000 0.0000
vt 0.5437 1.0000 0.0000
vt 0.5921 0.0000 0.0000
vt 0.5921 1.0000 0.0000
vt 0.6000 0.0000 0.0000
vt 0.6000 1.0000 0.0000
vt 0.6485 0.0000 0.0000
vt 0.6485 1.0000 0.0000
vt 0.6832 0.0000 0.0000
vt 0.6832 1.0000 0.0000
vt 0.7089 0.0000 0.0000
vt 0.7089 1.0000 0.0000
vt 0.7437 0.0000 0.0000
vt 0.7437 1.0000 0.0000
vt 0.7921 0.0000 0.0000
vt 0.7921 1.0000 0.0000
vt 0.8000 0.0000 0.0000
vt 0.8000 1.0000 0.0000
vt 0.8485 0.0000 0.0000
vt 0.8485 1.0000 0.0000
vt 0.8832 0.0000 0.0000
vt 0.8832 1.0000 0.0000
vt 0.9089 0.0000 0.0000
vt 0.9089 1.0000 0.0000
vt 0.9437 0.0000 0.0000
vt 0.9437 1.0000 0.0000
vt 0.9921 0.0000 0.0000
vt 0.9921 1.0000 0.0000
vt 1.0000 0.0000 0.0000
vt 1.0000 1.0000 0.0000
# 62 texture coords

g propeller
s off
f 1/1/1 2/2/1 3/3/1 4/4/1 
f 2/2/2 5/5/2 6/6/2 3/3/2 
f 5/5/3 7/7/3 8/8/3 6/6/3 
f 7/7/4 9/9/4 10/10/4 8/8/4 
f 9/9/5 11/11/5 12/12/5 10/10/5 
f 11/11/6 13/13/6 14/14/6 12/12/6 
f 13/13/7 15/15/7 16/16/7 14/14/7 
f 15/15/8 17/17/8 18/18/8 16/16/8 
f 17/17/9 19/19/9 20/20/9 18/18/9 
f 19/19/10 21/21/10 22/22/10 20/20/10 
f 21/21/11 23/23/11 24/24/11 22/22/11 
f 23/23/5 25/25/5 26/26/5 24/24/5 
f 25/25/6 27/27/6 28/28/6 26/26/6 
f 27/27/12 29/29/12 30/30/12 28/28/12 
f 29/29/13 31/31/13 32/32/13 30/30/13 
f 31/31/14 33/33/14 34/34/14 32/32/14 
f 33/33/1 35/35/1 36/36/1 34/34/1 
f 35/35/11 37/37/11 38/38/11 36/36/11 
f 37/37/5 39/39/5 40/40/5 38/38/5 
f 39/39/15 41/41/15 42/42/15 40/40/15 
f 41/41/16 43/43/16 44/44/16 42/42/16 
f 43/43/17 45/45/17 46/46/17 44/44/17 
f 45/45/7 47/47/7 48/48/7 46/46/7 
f 47/47/1 49/49/1 50/50/1 48/48/1 
f 49/49/11 51/51/11 52/52/11 50/50/11 
f 51/51/18 53/53/18 54/54/18 52/52/18 
f 53/53/19 55/55/19 56/56/19 54/54/19 
f 55/55/20 57/57/20 58/58/20 56/56/20 
f 57/57/6 59/59/6 60/60/6 58/58/6 
f 59/59/7 1/61/7 4/62/7 60/60/7 
f 14/4/21 26/4/21 38/4/21 60/4/21 
f 3/4/21 6/4/21 8/4/21 10/4/21 
f 12/4/21 4/4/21 3/4/21 10/4/21 
f 14/4/21 60/4/21 4/4/21 12/4/21 
f 50/4/21 52/4/21 58/4/21 60/4/21 
f 38/4/21 48/4/21 50/4/21 60/4/21 
f 54/4/21 56/4/21 58/4/21 52/4/21 
f 26/4/21 28/4/21 34/4/21 36/4/21 
f 11/4/22 61/4/22 62/4/22 13/4/22 
f 40/4/21 46/4/21 48/4/21 38/4/21 
f 40/4/21 42/4/21 44/4/21 46/4/21 
f 26/4/21 36/4/21 38/4/21 
f 9/4/22 63/4/22 61/4/22 11/4/22 
f 30/4/21 32/4/21 34/4/21 28/4/21 
f 18/4/21 20/4/21 22/4/21 16/4/21 
f 14/4/21 24/4/21 26/4/21 
f 22/4/21 24/4/21 14/4/21 16/4/21 
f 7/4/22 64/4/22 63/4/22 9/4/22 
f 5/4/22 65/4/22 64/4/22 7/4/22 
f 2/4/22 66/4/22 65/4/22 5/4/22 
f 1/4/22 67/4/22 66/4/22 2/4/22 
f 37/4/22 68/4/22 69/4/22 39/4/22 
f 70/4/22 71/4/22 69/4/22 68/4/22 
f 72/4/22 73/4/22 74/4/22 75/4/22 
f 76/4/22 68/4/22 72/4/22 
f 77/4/22 78/4/22 79/4/22 80/4/22 
f 81/4/22 82/4/22 78/4/22 77/4/22 
f 81/4/22 83/4/22 84/4/22 82/4/22 
f 61/4/22 63/4/22 66/4/22 67/4/22 
f 85/4/22 86/4/22 87/4/22 62/4/22 
f 59/4/22 77/4/22 67/4/22 1/4/22 
f 63/4/22 64/4/22 65/4/22 66/4/22 
f 57/4/22 81/4/22 77/4/22 59/4/22 
f 55/4/22 83/4/22 81/4/22 57/4/22 
f 53/4/22 84/4/22 83/4/22 55/4/22 
f 72/4/22 75/4/22 88/4/22 76/4/22 
f 79/4/22 78/4/22 70/4/22 
f 89/4/22 62/4/22 61/4/22 
f 89/4/22 80/4/22 79/4/22 
f 90/4/22 91/4/22 87/4/22 86/4/22 
f 89/4/22 61/4/22 67/4/22 80/4/22 
f 77/4/22 80/4/22 67/4/22 
f 76/4/22 79/4/22 70/4/22 68/4/22 
f 88/4/22 75/4/22 85/4/22 
f 85/4/22 62/4/22 89/4/22 88/4/22 
f 92/4/22 69/4/22 71/4/22 93/4/22 
f 94/4/22 95/4/22 74/4/22 73/4/22 
f 51/4/22 82/4/22 84/4/22 53/4/22 
f 49/4/22 78/4/22 82/4/22 51/4/22 
f 47/4/22 70/4/22 78/4/22 49/4/22 
f 45/4/22 71/4/22 70/4/22 47/4/22 
f 43/4/22 93/4/22 71/4/22 45/4/22 
f 41/4/22 92/4/22 93/4/22 43/4/22 
f 39/4/22 69/4/22 92/4/22 41/4/22 
f 79/4/22 76/4/22 88/4/22 89/4/22 
f 35/4/22 72/4/22 68/4/22 37/4/22 
f 33/4/22 73/4/22 72/4/22 35/4/22 
f 31/4/22 94/4/22 73/4/22 33/4/22 
f 29/4/22 95/4/22 94/4/22 31/4/22 
f 27/4/22 74/4/22 95/4/22 29/4/22 
f 25/4/22 75/4/22 74/4/22 27/4/22 
f 23/4/22 85/4/22 75/4/22 25/4/22 
f 21/4/22 86/4/22 85/4/22 23/4/22 
f 19/4/22 90/4/22 86/4/22 21/4/22 
f 17/4/22 91/4/22 90/4/22 19/4/22 
f 15/4/22 87/4/22 91/4/22 17/4/22 
f 13/4/22 62/4/22 87/4/22 15/4/22 
# 89 polygons - 8 triangles

