# 3ds Max Wavefront OBJ Exporter v0.97b - (c)2007 guruware
# File Created: 30.01.2018 11:08:27

#
# object Mill
#

v  1.0648 76.9644 -5.5858
v  2.0641 76.9644 -6.1128
v  2.0641 45.4463 -6.1128
v  1.0648 45.4463 -5.5858
v  -4.9185 76.9644 -16.9332
v  -3.9192 76.9644 -17.4601
v  -10.6350 76.9644 -27.7745
v  -9.6356 76.9644 -28.3014
v  -1.8458 18.0230 -5.1582
v  -0.6493 33.6917 -6.5152
v  -4.7345 33.6917 -14.2629
v  -6.5302 18.0230 -14.0422
v  29.4977 79.4412 -16.4868
v  21.8264 94.9624 -31.0354
v  -6.7647 94.9624 -15.9597
v  0.9066 79.4412 -1.4111
v  15.6710 16.6969 -49.1135
v  33.5333 16.6969 -15.2378
v  -0.3425 16.6969 2.6245
v  -18.2048 16.6969 -31.2513
v  29.7047 42.9505 -16.4228
v  26.6780 43.9144 -17.3596
v  1.7793 43.9144 -4.2308
v  0.8425 42.9505 -1.2041
v  14.4860 42.9505 -45.2849
v  13.5492 43.9144 -42.2583
v  -14.3761 42.9505 -30.0663
v  -11.3495 43.9144 -29.1295
v  -10.6350 45.4463 -27.7745
v  -9.6356 45.4463 -28.3014
v  25.3230 45.4463 -16.6451
v  24.7960 45.4463 -17.6444
v  2.6074 45.4463 -5.9446
v  3.1343 45.4463 -4.9453
v  25.3230 76.9644 -16.6451
v  24.7960 76.9644 -17.6444
v  3.1343 76.9644 -4.9453
v  2.6074 76.9644 -5.9446
v  -9.9944 45.4463 -29.8440
v  -9.4675 45.4463 -28.8447
v  12.7211 45.4463 -40.5444
v  12.1942 45.4463 -41.5438
v  14.4220 79.4412 -45.0780
v  -14.1692 79.4412 -30.0022
v  26.6780 78.4963 -17.3596
v  1.7793 78.4963 -4.2308
v  19.9802 78.4963 -30.0620
v  -4.9185 78.4963 -16.9332
v  13.5492 78.4963 -42.2583
v  -11.3495 78.4963 -29.1295
v  -3.7319 18.2532 -4.1637
v  -8.4163 18.2532 -13.0476
v  -9.9944 76.9644 -29.8440
v  -9.4675 76.9644 -28.8447
v  12.1942 76.9644 -41.5438
v  12.7211 76.9644 -40.5444
v  -2.5354 33.9219 -5.5207
v  -6.6206 33.9219 -13.2684
v  14.2637 45.4463 -40.9032
v  25.9635 45.4463 -18.7146
v  14.2637 76.9644 -40.9032
v  19.9802 76.9644 -30.0620
v  25.9635 76.9644 -18.7146
v  13.2644 45.4463 -40.3763
v  24.9642 45.4463 -18.1876
v  13.2644 76.9644 -40.3763
v  18.9809 76.9644 -29.5350
v  24.9642 76.9644 -18.1876
# 68 vertices

vn -0.4664 0.0000 -0.8846
vn -0.0000 -1.0000 -0.0000
vn -0.8795 0.1073 0.4637
vn 0.3201 0.7273 0.6071
vn 0.1843 0.9186 0.3496
vn 0.3496 0.9186 -0.1843
vn -0.1843 0.9186 -0.3496
vn -0.3496 0.9186 0.1843
vn 0.4664 -0.0000 0.8846
vn 0.0000 1.0000 0.0000
vn -0.8846 0.0000 0.4664
vn 0.8846 -0.0000 -0.4664
vn -0.3261 0.7150 -0.6184
vn 0.1924 -0.9110 0.3648
vn 0.8060 -0.2192 -0.5498
vn -0.9090 -0.2192 0.3545
vn 0.9106 -0.2186 -0.3508
vn -0.1924 -0.9110 -0.3648
vn -0.8039 -0.2186 0.5532
vn 0.0949 0.9942 -0.0501
vn -0.4699 -0.0405 -0.8818
vn -0.0949 -0.9942 0.0501
vn 0.4622 -0.0405 0.8859
vn 0.4637 0.1073 0.8795
vn 0.8795 0.1073 -0.4637
vn -0.4637 0.1073 -0.8795
# 26 vertex normals

vt 0.0000 0.0000 0.0000
vt 1.0000 0.0000 0.0000
vt 1.0000 1.0000 0.0000
vt 0.0000 1.0000 0.0000
vt 0.8302 0.1698 0.0000
vt 0.8317 0.8317 0.0000
vt 0.1683 0.8317 0.0000
vt 0.1698 0.1698 0.0000
vt 0.9313 0.0687 0.0000
vt 0.9313 0.5088 0.0000
vt 0.0687 0.5088 0.0000
vt 0.0687 0.0687 0.0000
vt 0.9313 0.9313 0.0000
vt 0.0687 0.9313 0.0000
vt 0.0848 0.9152 0.0000
vt 0.0848 0.0848 0.0000
vt 0.0687 0.9105 0.0000
vt 0.0687 0.9084 0.0000
vt 0.1104 0.9313 0.0000
vt 0.8896 0.9313 0.0000
vt 0.0687 0.5144 0.0000
vt 0.0687 0.8898 0.0000
vt 0.0687 0.8979 0.0000
vt 0.9313 0.8979 0.0000
vt 0.9313 0.8898 0.0000
vt 0.9313 0.5144 0.0000
vt 0.0687 0.1176 0.0000
vt 0.0687 0.1105 0.0000
vt 0.8896 0.0687 0.0000
vt 0.1104 0.0687 0.0000
vt 0.9313 0.1176 0.0000
vt 0.9313 0.1105 0.0000
# 32 texture coords

g Mill
s off
f 1/1/1 2/2/1 3/3/1 4/4/1 
f 5/1/2 6/2/2 2/3/2 1/4/2 
f 7/1/2 8/2/2 6/3/2 5/4/2 
f 9/5/3 10/6/3 11/7/3 12/8/3 
f 13/9/4 14/10/4 15/11/4 16/12/4 
f 17/2/2 18/3/2 19/4/2 20/1/2 
f 21/2/5 22/9/5 23/12/5 24/1/5 
f 25/3/6 26/13/6 22/9/6 21/2/6 
f 27/4/7 28/14/7 26/13/7 25/3/7 
f 24/1/8 23/12/8 28/14/8 27/4/8 
f 29/1/9 30/2/9 8/3/9 7/4/9 
f 31/1/10 32/2/10 33/3/10 34/4/10 
f 35/1/11 36/2/11 32/3/11 31/4/11 
f 37/1/2 38/2/2 36/3/2 35/4/2 
f 34/1/12 33/2/12 38/3/12 37/4/12 
f 39/1/10 40/2/10 41/3/10 42/4/10 
f 14/10/13 43/13/13 44/14/13 15/11/13 
f 45/1/14 13/2/14 16/3/14 46/4/14 
f 47/1/15 14/2/15 13/3/15 45/4/15 
f 46/1/16 16/2/16 15/3/16 48/4/16 
f 49/13/17 43/13/17 14/10/17 47/10/17 
f 50/1/18 44/2/18 43/13/18 49/13/18 
f 48/1/19 15/2/19 44/3/19 50/4/19 
f 19/4/3 51/15/3 52/16/3 20/1/3 
f 53/1/12 54/2/12 40/3/12 39/4/12 
f 55/1/2 56/2/2 54/3/2 53/4/2 
f 42/1/11 41/2/11 56/3/11 55/4/11 
f 51/1/20 9/2/20 12/3/20 52/4/20 
f 57/1/21 10/2/21 9/3/21 51/4/21 
f 58/1/22 11/2/22 10/3/22 57/4/22 
f 52/1/23 12/2/23 11/3/23 58/4/23 
f 26/1/12 59/2/12 60/3/12 22/4/12 
f 49/1/12 61/2/12 59/3/12 26/4/12 
f 47/1/12 62/2/12 61/3/12 49/4/12 
f 45/1/12 63/2/12 62/3/12 47/4/12 
f 22/1/12 60/2/12 63/3/12 45/4/12 
f 23/1/11 4/2/11 29/3/11 28/4/11 
f 46/1/11 1/2/11 4/3/11 23/4/11 
f 48/1/11 5/2/11 1/3/11 46/4/11 
f 50/1/11 7/2/11 5/3/11 48/4/11 
f 28/1/11 29/2/11 7/3/11 50/4/11 
f 22/1/9 31/2/9 34/3/9 23/4/9 
f 45/1/9 35/2/9 31/3/9 22/4/9 
f 46/1/9 37/2/9 35/3/9 45/4/9 
f 23/1/9 34/2/9 37/3/9 46/4/9 
f 28/14/1 39/17/1 42/3/1 26/4/1 
f 50/14/1 53/18/1 39/17/1 28/14/1 
f 49/1/1 55/2/1 53/18/1 50/14/1 
f 26/1/1 42/2/1 55/3/1 49/4/1 
f 59/1/10 64/2/10 65/3/10 60/4/10 
f 61/1/9 66/2/9 64/3/9 59/4/9 
f 62/1/2 67/2/2 66/3/2 61/4/2 
f 63/1/2 68/2/2 67/3/2 62/4/2 
f 60/1/1 65/2/1 68/3/1 63/4/1 
f 4/1/10 3/2/10 30/3/10 29/4/10 
f 18/2/24 21/3/24 24/4/24 19/1/24 
f 17/2/25 25/3/25 21/4/25 18/1/25 
f 20/2/26 27/3/26 25/4/26 17/1/26 
f 40/19/1 54/19/1 56/20/1 41/20/1 
f 6/21/11 8/22/11 30/23/11 
f 64/24/12 66/25/12 67/26/12 
f 2/27/11 6/21/11 30/23/11 3/28/11 
f 24/1/3 57/2/3 51/15/3 19/4/3 
f 27/1/3 58/2/3 57/3/3 24/4/3 
f 20/1/3 52/16/3 58/3/3 27/4/3 
f 32/29/9 36/29/9 38/30/9 33/30/9 
f 64/24/12 67/26/12 68/31/12 65/32/12 
# 65 polygons - 2 triangles

